<!-- icon666.com - MILLIONS vector ICONS FREE --><svg viewBox="-64 0 426 426.69384" xmlns="http://www.w3.org/2000/svg"><path d="m245.679688 0h-192c-29.441407.03125-53.300782 23.890625-53.332032 53.332031v362.667969c0 4.0625 2.3125 7.769531 5.957032 9.5625 3.632812 1.839844 8.003906 1.410156 11.210937-1.105469l132.164063-101.664062 132.167968 101.664062c1.863282 1.433594 4.148438 2.210938 6.5 2.210938 1.632813.003906 3.246094-.375 4.707032-1.105469 3.648437-1.792969 5.957031-5.5 5.957031-9.5625v-362.667969c-.027344-29.441406-23.890625-53.300781-53.332031-53.332031zm32 394.332031-121.5-93.457031c-3.832032-2.945312-9.167969-2.945312-13 0l-121.5 93.457031v-341c.019531-17.664062 14.335937-31.980469 32-32h192c17.664062.019531 31.980468 14.335938 32 32zm0 0" fill="#000000" style="fill: rgb(47, 47, 47);"></path><path d="m203.011719 149.332031h-42.664063v-42.664062c0-5.890625-4.777344-10.667969-10.667968-10.667969-5.890626 0-10.667969 4.777344-10.667969 10.667969v42.664062h-42.664063c-5.890625 0-10.667968 4.777344-10.667968 10.667969s4.777343 10.667969 10.667968 10.667969h42.664063v42.664062c0 5.890625 4.777343 10.667969 10.667969 10.667969 5.890624 0 10.667968-4.777344 10.667968-10.667969v-42.664062h42.664063c5.894531 0 10.667969-4.777344 10.667969-10.667969s-4.773438-10.667969-10.667969-10.667969zm0 0" fill="#000000" style="fill: rgb(47, 47, 47);"></path></svg>