<!-- icon666.com - MILLIONS vector ICONS FREE --><svg version="1.1" id="Capa_1" xmlns="http://www.w3.org/2000/svg" xmlns:xlink="http://www.w3.org/1999/xlink" x="0px" y="0px" viewBox="0 0 438.614 438.614" style="enable-background:new 0 0 438.614 438.614;" xml:space="preserve"><g><g><path d="M336.854,0c-0.142,0-0.285,0-0.427,0H101.76C52.206,0.118,12.064,40.26,11.947,89.814V336.64 c0.281,9.668,4.807,18.721,12.373,24.747l97.707,71.68c5.225,3.557,11.386,5.487,17.707,5.547 c6.584-0.077,13.014-1.998,18.56-5.547l97.28-72.107c7.648-5.82,12.082-14.923,11.947-24.533V295.68h102.613 c31.104,0.118,56.415-25.001,56.533-56.106c0,0,0,0,0-0.001V90.24C426.785,40.52,386.574,0.118,336.854,0z M257.707,46.72 c-1.067,2.133-2.56,4.053-3.413,6.4c-1.623,3.812-2.977,7.733-4.053,11.733c0,1.92-1.493,3.84-1.92,5.973 c-1.391,6.234-2.106,12.6-2.133,18.987V336.64c0.158,3.007-1.204,5.892-3.627,7.68l-96,71.467c-3.609,2.439-8.338,2.439-11.947,0 L37.76,344.96c-2.614-2.005-4.245-5.034-4.48-8.32V89.814c0.118-37.938,30.968-68.598,68.906-68.48c0,0,0,0,0.001,0h175.787 l-2.347,2.56c-2.566,2.416-4.988,4.98-7.253,7.68c-1.707,1.92-3.413,3.84-4.907,5.76C261.356,40.341,259.432,43.476,257.707,46.72 z M405.333,239.787c-0.234,19.239-15.96,34.679-35.2,34.56H267.52V89.814c0-38.056,30.851-68.907,68.907-68.907 c38.056,0,68.907,30.851,68.907,68.907L405.333,239.787z" fill="#000000" style="fill: rgb(128, 128, 128);"></path></g></g></svg>