<!-- icon666.com - MILLIONS vector ICONS FREE --><svg version="1.1" id="Layer_1" xmlns="http://www.w3.org/2000/svg" xmlns:xlink="http://www.w3.org/1999/xlink" x="0px" y="0px" viewBox="0 0 509.287 509.287" style="enable-background:new 0 0 509.287 509.287;" xml:space="preserve"><circle style="fill: rgb(73, 205, 238);" cx="254.644" cy="254.644" r="254.644" fill="#EE4A68"></circle><path style="" d="M79.004,137.325v281.091c0,6.442,5.425,11.868,11.868,11.868h327.883 c6.442,0,11.868-5.425,11.868-11.868V137.325H79.004z" fill="#F1F3F7"></path><path style="" d="M430.283,96.975c0-6.442-5.425-11.868-11.868-11.868H90.872c-6.442,0-11.868,5.425-11.868,11.868 v40.35h351.279V96.975z" fill="#4F5565"></path><circle style="" cx="113.928" cy="111.216" r="8.477" fill="#F0582F"></circle><circle style="" cx="142.411" cy="111.216" r="8.477" fill="#FBD303"></circle><circle style="" cx="170.893" cy="111.216" r="8.477" fill="#71D456"></circle><path style="" d="M369.589,102.739H213.277c-4.747,0-8.477,3.73-8.477,8.477c0,4.747,3.73,8.477,8.477,8.477h156.313 c4.747,0,8.477-3.73,8.477-8.477C378.066,106.469,374.336,102.739,369.589,102.739z" fill="#333842"></path><rect x="113.25" y="167.502" style="" width="282.448" height="232.265" fill="#6EB1E1"></rect><path style="" d="M215.989,349.245v-28.143c0-21.362,17.293-38.654,38.654-38.654s38.654,17.293,38.654,38.654v28.143 h25.091v-28.143c0-34.925-28.482-63.407-63.407-63.407s-63.407,28.482-63.407,63.407v28.143L215.989,349.245L215.989,349.245z" fill="#FCFCFD"></path><rect x="171.91" y="345.854" style="" width="165.128" height="132.577" fill="#FBD303"></rect></svg>