<!-- icon666.com - MILLIONS vector ICONS FREE --><svg viewBox="0 0 500 500" xmlns="http://www.w3.org/2000/svg"><g id="Layer_2" data-name="Layer 2"><g id="_15.Circle_Solid_Color" data-name="15.Circle_Solid_Color"><g id="S"><rect fill="#00b2ff" height="500" rx="250" width="500" style="fill: rgb(244, 81, 30);"></rect><path id="S-2" d="m203.486 370.613q-22-9.009-35.156-26.683t-13.883-42.548h65.625q1.437 14.063 9.736 21.455t21.635 7.391q13.7 0 21.635-6.31t7.931-17.488a20.721 20.721 0 0 0 -6.31-15.5 51.027 51.027 0 0 0 -15.5-10.1 250.8 250.8 0 0 0 -26.142-9.015q-24.525-7.573-40.024-15.144a73.894 73.894 0 0 1 -26.683-22.356q-11.18-14.781-11.178-38.582 0-35.334 25.6-55.348t66.707-20.013q41.826 0 67.428 20.013t27.4 55.709h-66.707q-.726-12.255-9.015-19.291t-21.273-7.032q-11.181 0-18.029 5.95t-6.851 17.127q0 12.262 11.538 19.111t36.058 14.784q24.518 8.3 39.843 15.865a75.912 75.912 0 0 1 26.5 22q11.172 14.426 11.178 37.139a72.9 72.9 0 0 1 -11 39.3q-11 17.67-31.911 28.124t-49.4 10.458q-27.763-.001-49.752-9.016z" fill="#fff" data-name="S" style="fill: rgb(255, 255, 255);"></path></g></g></g></svg>